<?xml version="1.0" encoding="UTF-8"?>
<!-- Uploaded to: SVG Find, www.svgfind.com, Generator: SVG Find Mixer Tools -->
<svg fill="#000000" width="800px" height="800px" version="1.1" viewBox="144 144 512 512" xmlns="http://www.w3.org/2000/svg">
 <path d="m623.34 574.47-22.418-57.637-0.30078-0.70703c-9.4727-20.656-22.168-30.73-47.207-37.23l-108.07-23.93v-16.625c31.742-28.266 64.035-79.25 64.035-122.38-0.82422-38.512-21.848-73.746-55.344-92.766-33.492-19.02-74.523-19.02-108.02 0-33.496 19.02-54.516 54.254-55.344 92.766-0.050781 43.125 32.242 94.109 63.984 122.38v16.625l-108.17 23.93c-20.152 4.6836-34.66 15.82-46.551 36.125-0.33594 0.57812-0.62109 1.1875-0.85938 1.8125l-22.418 57.637c-1.4297 3.8516-0.89062 8.1641 1.4492 11.547 2.3359 3.3789 6.1797 5.4062 10.289 5.4297h423.2c4.1641 0.003907 8.0586-2.0508 10.406-5.4883 2.3516-3.4375 2.8477-7.8125 1.332-11.691zm-416.55-8.2148 15.113-39.551c8.1602-13.602 16.879-20.453 29.824-23.426l118.14-26.098v0.003906c5.8477-1.1953 10.055-6.3281 10.074-12.293v-32.348c0.003907-3.7617-1.6797-7.3281-4.582-9.7227-32.898-27.105-59.652-75.066-59.652-106.86v0.003906c0.72266-29.578 16.922-56.605 42.664-71.191 25.742-14.582 57.254-14.582 82.996 0 25.742 14.586 41.938 41.613 42.664 71.191 0 31.789-26.754 79.703-59.652 106.86v-0.003907c-2.7734 2.4609-4.3203 6.0195-4.2305 9.7227v32.547c0.019531 5.9688 4.2266 11.102 10.074 12.293l117.69 25.996c17.078 4.4336 23.879 9.6211 30.23 22.922l15.617 40.305z"/>
</svg>