<?xml version="1.0" encoding="UTF-8"?>
<!-- Uploaded to: SVG Find, www.svgfind.com, Generator: SVG Find Mixer Tools -->
<svg fill="#000000" width="800px" height="800px" version="1.1" viewBox="144 144 512 512" xmlns="http://www.w3.org/2000/svg">
 <g>
  <path d="m195.34 242.58c-18.367 0-29.699 10.297-34.574 20.047s-4.8242 19.293-4.8242 19.293v291.25s-0.050781 9.543 4.8242 19.293 16.207 20.105 34.574 20.105l-1.2188-0.11719 204.66 31.496c0.80859 0.12891 1.6328 0.12891 2.4414 0l204.66-31.496-1.2188 0.11719c18.367 0 29.699-10.355 34.574-20.105s4.7656-19.293 4.7656-19.293v-291.25s0.10938-9.543-4.7656-19.293-16.207-20.047-34.574-20.047h-15.746v15.746h15.746c13.121 0 17.516 5.3945 20.512 11.391 2.9961 5.9961 3.0781 12.203 3.0781 12.203v291.25s-0.082031 6.2656-3.0781 12.262c-2.9961 5.9961-7.3945 11.391-20.512 11.391-0.40625-0.011719-0.81641 0.007812-1.2188 0.058593l-203.45 31.32-203.5-31.324c-0.38672-0.046875-0.77344-0.070312-1.1641-0.058594-13.121 0-17.516-5.3945-20.512-11.391-2.9961-5.9961-3.1367-12.262-3.1367-12.262v-291.25s0.14062-6.207 3.1367-12.203c2.9961-5.9961 7.3945-11.391 20.512-11.391h15.75v-15.746z"/>
  <path d="m211.09 171.69c-4.3711-0.019531-7.9219 3.5312-7.9023 7.9023v330.59c-0.015625 4.3711 3.5312 7.918 7.9023 7.9023 61.992 0 108.26 11.621 138.94 23.129 30.68 11.504 45.27 22.547 45.27 22.547 2.793 2.082 6.6211 2.082 9.4141 0 0 0 14.586-11.043 45.27-22.547 30.68-11.504 76.949-23.129 138.94-23.129 4.3711 0.015625 7.918-3.5312 7.9023-7.9023v-330.59c0.015625-4.3711-3.5312-7.918-7.9023-7.9023-63.961 0-112.17 12.004-144.46 24.117-29.199 10.949-44.453 21.586-44.453 21.586s-15.254-10.637-44.453-21.586c-32.301-12.113-80.508-24.117-144.47-24.117zm7.8438 16.445c57.551 1.043 101.9 11.48 131.1 22.43 30.68 11.504 45.27 22.547 45.27 22.547 2.793 2.082 6.6211 2.082 9.4141 0 0 0 14.586-11.043 45.27-22.547 29.199-10.949 73.547-21.391 131.1-22.43l-0.003906 314.28c-59.574 1.043-105.83 12.492-136.62 24.035-29.199 10.949-41.539 20.242-44.453 22.312-2.918-2.0742-15.254-11.363-44.453-22.312-30.793-11.543-77.047-22.992-136.62-24.035z"/>
  <path d="m392.1 226.83v330.59h15.75v-330.59z"/>
  <path d="m539.29 315.86c-42.02 4.2266-75.543 13.359-100.36 22.664-12.113 4.5391-18.348 18.277-13.832 30.391 4.5508 12.129 18.324 18.387 30.449 13.828 21.277-7.9766 50.707-16.074 88.504-19.871 12.895-1.2891 22.457-13.023 21.152-25.918-1.3008-12.871-12.992-22.367-25.859-21.094zm1.6289 15.633c4.418-0.44922 8.1562 2.6133 8.6016 7.0312v0.058593c0.44922 4.4219-2.6094 8.1602-7.0312 8.6016-39.211 3.9414-70.055 12.383-92.512 20.805v0.058594c-4.1641 1.5586-8.5547-0.49219-10.113-4.6523-1.5625-4.1602 0.42969-8.5547 4.5898-10.113 23.637-8.8633 55.832-17.707 96.465-21.793z"/>
  <path d="m539.29 247.75c-42.02 4.2266-75.543 13.414-100.36 22.719-12.133 4.5508-18.387 18.266-13.832 30.395 4.5508 12.129 18.324 18.387 30.449 13.832 21.277-7.9805 50.707-16.133 88.504-19.934 12.898-1.2891 22.457-12.965 21.152-25.859-1.2969-12.871-12.992-22.426-25.859-21.152zm1.6289 15.691c4.418-0.44922 8.1562 2.6133 8.6016 7.0312 0.44922 4.4219-2.6094 8.2148-7.0312 8.6602-39.211 3.9414-70.055 12.383-92.512 20.805-4.1641 1.5586-8.5547-0.4375-10.113-4.5977-1.5625-4.1562 0.42969-8.6094 4.5898-10.168 23.637-8.8633 55.832-17.648 96.465-21.734z"/>
  <path d="m539.29 385.71c-42.02 4.2305-75.543 13.359-100.36 22.664-12.113 4.543-18.348 18.277-13.832 30.391 4.5508 12.133 18.324 18.387 30.449 13.832 21.277-7.9805 50.707-16.078 88.504-19.875 12.895-1.2891 22.457-13.023 21.152-25.918-1.3008-12.871-12.992-22.367-25.859-21.094zm1.6289 15.633c4.418-0.44922 8.1562 2.668 8.6016 7.0898 0.44922 4.4219-2.6094 8.1602-7.0312 8.6016-39.211 3.9414-70.055 12.383-92.512 20.805v0.058593c-4.1641 1.5586-8.5547-0.49219-10.113-4.6523-1.5625-4.1602 0.42969-8.5508 4.5898-10.113 23.637-8.8633 55.832-17.707 96.465-21.789z"/>
  <path d="m260.65 315.86c-12.887-1.3047-24.559 8.207-25.859 21.094-1.3047 12.895 8.2578 24.629 21.152 25.918 37.797 3.7969 67.227 11.895 88.504 19.871 12.129 4.5586 25.902-1.6992 30.449-13.828 4.5156-12.113-1.7188-25.852-13.828-30.391-24.828-9.3125-58.367-18.438-100.42-22.664zm-1.5703 15.633c40.633 4.082 72.824 12.926 96.465 21.793 4.1602 1.5586 6.1523 5.9531 4.5898 10.109-1.5586 4.1602-5.9531 6.2109-10.109 4.6484-0.019532-0.019531-0.039063-0.039063-0.058594-0.058594-22.457-8.4219-53.242-16.863-92.453-20.805-4.4219-0.44141-7.4805-4.1758-7.0312-8.6016v-0.058594c0.44531-4.418 4.1797-7.4766 8.6016-7.0312z"/>
  <path d="m260.65 247.75c-12.887-1.3047-24.559 8.2656-25.859 21.152-1.3047 12.895 8.2578 24.57 21.152 25.859 37.797 3.7969 67.227 11.953 88.504 19.93 12.129 4.5586 25.902-1.6992 30.449-13.828 4.5586-12.129-1.6992-25.844-13.828-30.395-24.828-9.3086-58.367-18.492-100.42-22.719zm-1.5703 15.691c40.633 4.082 72.824 12.867 96.465 21.734 4.1602 1.5586 6.1523 6.0117 4.5898 10.168-1.5586 4.1602-5.9531 6.1523-10.109 4.5898h-0.058594c-22.457-8.4219-53.242-16.863-92.453-20.805-4.4219-0.44141-7.4805-4.2344-7.0312-8.6602 0.44531-4.418 4.1797-7.4766 8.6016-7.0312z"/>
  <path d="m260.65 385.71c-12.887-1.3047-24.559 8.207-25.859 21.094-1.3047 12.895 8.2578 24.629 21.152 25.918 37.797 3.7969 67.227 11.895 88.504 19.875 12.129 4.5547 25.902-1.6992 30.449-13.832 4.5156-12.113-1.7188-25.848-13.828-30.391-24.828-9.3125-58.367-18.438-100.42-22.664zm-1.5703 15.633c40.633 4.082 72.824 12.926 96.465 21.793 4.1602 1.5586 6.1523 5.9531 4.5898 10.109-1.5586 4.1602-5.9531 6.2109-10.109 4.6484-0.019532-0.019531-0.039063-0.039063-0.058594-0.058594-22.457-8.4219-53.242-16.863-92.453-20.805-4.4219-0.44141-7.4805-4.1758-7.0312-8.5977 0.44531-4.4219 4.1797-7.5391 8.6016-7.0898z"/>
 </g>
</svg>